<?xml version="1.0" encoding="UTF-8" standalone="no"?>
<!DOCTYPE svg PUBLIC "-//W3C//DTD SVG 1.1//EN"
 "http://www.w3.org/Graphics/SVG/1.1/DTD/svg11.dtd">
<!-- Generated by graphviz version 2.47.3 (20210619.1520)
 -->
<!-- Title: dependencies Pages: 1 -->
<svg width="521pt" height="174pt"
 viewBox="0.00 0.00 521.00 173.80" xmlns="http://www.w3.org/2000/svg" xmlns:xlink="http://www.w3.org/1999/xlink">
<g id="graph0" class="graph" transform="scale(1 1) rotate(0) translate(4 169.8)">
<title>dependencies</title>
<polygon fill="white" stroke="transparent" points="-4,4 -4,-169.8 517,-169.8 517,4 -4,4"/>
<text text-anchor="middle" x="256.5" y="-8.2" font-family="sans-serif" font-size="14.00">dependencies</text>
<g id="clust1" class="cluster">
<title>cluster_AppModule</title>
<polygon fill="none" stroke="black" stroke-dasharray="1,5" points="8,-32.8 8,-157.8 505,-157.8 505,-32.8 8,-32.8"/>
</g>
<g id="clust6" class="cluster">
<title>cluster_AppModule_providers</title>
<polygon fill="none" stroke="black" points="367,-40.8 367,-92.8 497,-92.8 497,-40.8 367,-40.8"/>
</g>
<g id="clust3" class="cluster">
<title>cluster_AppModule_imports</title>
<polygon fill="none" stroke="black" points="16,-40.8 16,-92.8 359,-92.8 359,-40.8 16,-40.8"/>
</g>
<!-- AddressModule -->
<g id="node1" class="node">
<title>AddressModule</title>
<polygon fill="#8dd3c7" stroke="black" points="350.92,-84.8 347.92,-88.8 326.92,-88.8 323.92,-84.8 245.08,-84.8 245.08,-48.8 350.92,-48.8 350.92,-84.8"/>
<text text-anchor="middle" x="298" y="-62.6" font-family="Times,serif" font-size="14.00">AddressModule</text>
</g>
<!-- AppModule -->
<g id="node4" class="node">
<title>AppModule</title>
<polygon fill="#8dd3c7" stroke="black" points="279.66,-149.8 276.66,-153.8 255.66,-153.8 252.66,-149.8 196.34,-149.8 196.34,-113.8 279.66,-113.8 279.66,-149.8"/>
<text text-anchor="middle" x="238" y="-127.6" font-family="Times,serif" font-size="14.00">AppModule</text>
</g>
<!-- AddressModule&#45;&gt;AppModule -->
<g id="edge1" class="edge">
<title>AddressModule&#45;&gt;AppModule</title>
<path fill="none" stroke="black" d="M262.56,-84.91C262.56,-84.91 262.56,-103.79 262.56,-103.79"/>
<polygon fill="black" stroke="black" points="259.06,-103.79 262.56,-113.79 266.06,-103.79 259.06,-103.79"/>
</g>
<!-- CourseModule -->
<g id="node2" class="node">
<title>CourseModule</title>
<polygon fill="#8dd3c7" stroke="black" points="227.71,-84.8 224.71,-88.8 203.71,-88.8 200.71,-84.8 128.29,-84.8 128.29,-48.8 227.71,-48.8 227.71,-84.8"/>
<text text-anchor="middle" x="178" y="-62.6" font-family="Times,serif" font-size="14.00">CourseModule</text>
</g>
<!-- CourseModule&#45;&gt;AppModule -->
<g id="edge2" class="edge">
<title>CourseModule&#45;&gt;AppModule</title>
<path fill="none" stroke="black" d="M211.89,-84.91C211.89,-84.91 211.89,-103.79 211.89,-103.79"/>
<polygon fill="black" stroke="black" points="208.39,-103.79 211.89,-113.79 215.39,-103.79 208.39,-103.79"/>
</g>
<!-- UserModule -->
<g id="node3" class="node">
<title>UserModule</title>
<polygon fill="#8dd3c7" stroke="black" points="109.98,-84.8 106.98,-88.8 85.98,-88.8 82.98,-84.8 24.02,-84.8 24.02,-48.8 109.98,-48.8 109.98,-84.8"/>
<text text-anchor="middle" x="67" y="-62.6" font-family="Times,serif" font-size="14.00">UserModule</text>
</g>
<!-- UserModule&#45;&gt;AppModule -->
<g id="edge3" class="edge">
<title>UserModule&#45;&gt;AppModule</title>
<path fill="none" stroke="black" d="M67,-84.91C67,-104.14 67,-131.8 67,-131.8 67,-131.8 186.17,-131.8 186.17,-131.8"/>
<polygon fill="black" stroke="black" points="186.17,-135.3 196.17,-131.8 186.17,-128.3 186.17,-135.3"/>
</g>
<!-- AppService -->
<g id="node5" class="node">
<title>AppService</title>
<ellipse fill="#fdb462" stroke="black" cx="432" cy="-66.8" rx="56.74" ry="18"/>
<text text-anchor="middle" x="432" y="-62.6" font-family="Times,serif" font-size="14.00">AppService</text>
</g>
<!-- AppService&#45;&gt;AppModule -->
<g id="edge4" class="edge">
<title>AppService&#45;&gt;AppModule</title>
<path fill="none" stroke="black" d="M432,-84.91C432,-104.14 432,-131.8 432,-131.8 432,-131.8 290.1,-131.8 290.1,-131.8"/>
<polygon fill="black" stroke="black" points="290.1,-128.3 280.1,-131.8 290.1,-135.3 290.1,-128.3"/>
</g>
</g>
</svg>
