<?xml version="1.0" encoding="UTF-8" standalone="no"?>
<!DOCTYPE svg PUBLIC "-//W3C//DTD SVG 1.1//EN"
 "http://www.w3.org/Graphics/SVG/1.1/DTD/svg11.dtd">
<!-- Generated by graphviz version 2.47.3 (20210619.1520)
 -->
<!-- Title: dependencies Pages: 1 -->
<svg width="772pt" height="250pt"
 viewBox="0.00 0.00 772.00 249.80" xmlns="http://www.w3.org/2000/svg" xmlns:xlink="http://www.w3.org/1999/xlink">
<g id="graph0" class="graph" transform="scale(1 1) rotate(0) translate(4 245.8)">
<title>dependencies</title>
<polygon fill="white" stroke="transparent" points="-4,4 -4,-245.8 768,-245.8 768,4 -4,4"/>
<text text-anchor="middle" x="382" y="-8.2" font-family="sans-serif" font-size="14.00">dependencies</text>
<g id="clust1" class="cluster">
<title>cluster_AddressModule</title>
<polygon fill="none" stroke="black" stroke-dasharray="1,5" points="8,-32.8 8,-168.8 184,-168.8 184,-32.8 8,-32.8"/>
</g>
<g id="clust6" class="cluster">
<title>cluster_AddressModule_providers</title>
<polygon fill="none" stroke="black" points="16,-40.8 16,-92.8 176,-92.8 176,-40.8 16,-40.8"/>
</g>
<g id="clust7" class="cluster">
<title>cluster_AppModule</title>
<polygon fill="none" stroke="black" stroke-dasharray="1,5" points="202,-108.8 202,-233.8 576,-233.8 576,-108.8 202,-108.8"/>
</g>
<g id="clust9" class="cluster">
<title>cluster_AppModule_imports</title>
<polygon fill="none" stroke="black" points="348,-116.8 348,-168.8 568,-168.8 568,-116.8 348,-116.8"/>
</g>
<g id="clust12" class="cluster">
<title>cluster_AppModule_providers</title>
<polygon fill="none" stroke="black" points="210,-116.8 210,-168.8 340,-168.8 340,-116.8 210,-116.8"/>
</g>
<g id="clust13" class="cluster">
<title>cluster_CourseModule</title>
<polygon fill="none" stroke="black" stroke-dasharray="1,5" points="590,-32.8 590,-100.8 756,-100.8 756,-32.8 590,-32.8"/>
</g>
<g id="clust18" class="cluster">
<title>cluster_CourseModule_providers</title>
<polygon fill="none" stroke="black" points="598,-40.8 598,-92.8 748,-92.8 748,-40.8 598,-40.8"/>
</g>
<g id="clust19" class="cluster">
<title>cluster_UserModule</title>
<polygon fill="none" stroke="black" stroke-dasharray="1,5" points="192,-32.8 192,-100.8 582,-100.8 582,-32.8 192,-32.8"/>
</g>
<g id="clust22" class="cluster">
<title>cluster_UserModule_exports</title>
<polygon fill="none" stroke="black" points="472,-40.8 472,-92.8 574,-92.8 574,-40.8 472,-40.8"/>
</g>
<g id="clust24" class="cluster">
<title>cluster_UserModule_providers</title>
<polygon fill="none" stroke="black" points="200,-40.8 200,-92.8 464,-92.8 464,-40.8 200,-40.8"/>
</g>
<!-- AddressService -->
<g id="node1" class="node">
<title>AddressService</title>
<ellipse fill="#fdb462" stroke="black" cx="96" cy="-66.8" rx="71.77" ry="18"/>
<text text-anchor="middle" x="96" y="-62.6" font-family="Times,serif" font-size="14.00">AddressService</text>
</g>
<!-- AddressModule -->
<g id="node2" class="node">
<title>AddressModule</title>
<polygon fill="#8dd3c7" stroke="black" points="161.92,-160.8 158.92,-164.8 137.92,-164.8 134.92,-160.8 56.08,-160.8 56.08,-124.8 161.92,-124.8 161.92,-160.8"/>
<text text-anchor="middle" x="109" y="-138.6" font-family="Times,serif" font-size="14.00">AddressModule</text>
</g>
<!-- AddressService&#45;&gt;AddressModule -->
<g id="edge1" class="edge">
<title>AddressService&#45;&gt;AddressModule</title>
<path fill="none" stroke="black" d="M109,-84.81C109,-84.81 109,-114.65 109,-114.65"/>
<polygon fill="black" stroke="black" points="105.5,-114.65 109,-124.65 112.5,-114.65 105.5,-114.65"/>
</g>
<!-- AppModule -->
<g id="node5" class="node">
<title>AppModule</title>
<polygon fill="#8dd3c7" stroke="black" points="378.66,-225.8 375.66,-229.8 354.66,-229.8 351.66,-225.8 295.34,-225.8 295.34,-189.8 378.66,-189.8 378.66,-225.8"/>
<text text-anchor="middle" x="337" y="-203.6" font-family="Times,serif" font-size="14.00">AppModule</text>
</g>
<!-- AddressModule&#45;&gt;AppModule -->
<g id="edge2" class="edge">
<title>AddressModule&#45;&gt;AppModule</title>
<path fill="none" stroke="black" d="M109,-160.91C109,-180.14 109,-207.8 109,-207.8 109,-207.8 285.18,-207.8 285.18,-207.8"/>
<polygon fill="black" stroke="black" points="285.18,-211.3 295.18,-207.8 285.18,-204.3 285.18,-211.3"/>
</g>
<!-- CourseModule -->
<g id="node3" class="node">
<title>CourseModule</title>
<polygon fill="#8dd3c7" stroke="black" points="559.71,-160.8 556.71,-164.8 535.71,-164.8 532.71,-160.8 460.29,-160.8 460.29,-124.8 559.71,-124.8 559.71,-160.8"/>
<text text-anchor="middle" x="510" y="-138.6" font-family="Times,serif" font-size="14.00">CourseModule</text>
</g>
<!-- CourseModule&#45;&gt;AppModule -->
<g id="edge3" class="edge">
<title>CourseModule&#45;&gt;AppModule</title>
<path fill="none" stroke="black" d="M510,-160.91C510,-180.14 510,-207.8 510,-207.8 510,-207.8 388.88,-207.8 388.88,-207.8"/>
<polygon fill="black" stroke="black" points="388.88,-204.3 378.88,-207.8 388.88,-211.3 388.88,-204.3"/>
</g>
<!-- UserModule -->
<g id="node4" class="node">
<title>UserModule</title>
<polygon fill="#8dd3c7" stroke="black" points="441.98,-160.8 438.98,-164.8 417.98,-164.8 414.98,-160.8 356.02,-160.8 356.02,-124.8 441.98,-124.8 441.98,-160.8"/>
<text text-anchor="middle" x="399" y="-138.6" font-family="Times,serif" font-size="14.00">UserModule</text>
</g>
<!-- UserModule&#45;&gt;AppModule -->
<g id="edge4" class="edge">
<title>UserModule&#45;&gt;AppModule</title>
<path fill="none" stroke="black" d="M367.42,-160.91C367.42,-160.91 367.42,-179.79 367.42,-179.79"/>
<polygon fill="black" stroke="black" points="363.92,-179.79 367.42,-189.79 370.92,-179.79 363.92,-179.79"/>
</g>
<!-- JwtStrategy  -->
<g id="node8" class="node">
<title>JwtStrategy </title>
<polygon fill="#fb8072" stroke="black" points="565.6,-84.8 480.4,-84.8 480.4,-48.8 565.6,-48.8 565.6,-84.8"/>
<text text-anchor="middle" x="523" y="-62.6" font-family="Times,serif" font-size="14.00">JwtStrategy </text>
</g>
<!-- UserModule&#45;&gt;JwtStrategy  -->
<g id="edge7" class="edge">
<title>UserModule&#45;&gt;JwtStrategy </title>
<path fill="none" stroke="black" stroke-dasharray="5,2" d="M413.33,-124.69C413.33,-114.9 413.33,-104.8 413.33,-104.8 413.33,-104.8 519.9,-104.8 519.9,-104.8 519.9,-104.8 519.9,-94.91 519.9,-94.91"/>
<polygon fill="black" stroke="black" points="523.4,-94.91 519.9,-84.91 516.4,-94.91 523.4,-94.91"/>
</g>
<!-- AppService -->
<g id="node6" class="node">
<title>AppService</title>
<ellipse fill="#fdb462" stroke="black" cx="275" cy="-142.8" rx="56.74" ry="18"/>
<text text-anchor="middle" x="275" y="-138.6" font-family="Times,serif" font-size="14.00">AppService</text>
</g>
<!-- AppService&#45;&gt;AppModule -->
<g id="edge5" class="edge">
<title>AppService&#45;&gt;AppModule</title>
<path fill="none" stroke="black" d="M313.4,-156.27C313.4,-156.27 313.4,-179.66 313.4,-179.66"/>
<polygon fill="black" stroke="black" points="309.9,-179.66 313.4,-189.66 316.9,-179.66 309.9,-179.66"/>
</g>
<!-- CourseService -->
<g id="node7" class="node">
<title>CourseService</title>
<ellipse fill="#fdb462" stroke="black" cx="673" cy="-66.8" rx="67.19" ry="18"/>
<text text-anchor="middle" x="673" y="-62.6" font-family="Times,serif" font-size="14.00">CourseService</text>
</g>
<!-- CourseService&#45;&gt;CourseModule -->
<g id="edge6" class="edge">
<title>CourseService&#45;&gt;CourseModule</title>
<path fill="none" stroke="black" d="M673,-84.81C673,-107.29 673,-142.8 673,-142.8 673,-142.8 569.79,-142.8 569.79,-142.8"/>
<polygon fill="black" stroke="black" points="569.79,-139.3 559.79,-142.8 569.79,-146.3 569.79,-139.3"/>
</g>
<!-- JwtStrategy -->
<g id="node9" class="node">
<title>JwtStrategy</title>
<ellipse fill="#fdb462" stroke="black" cx="399" cy="-66.8" rx="56.76" ry="18"/>
<text text-anchor="middle" x="399" y="-62.6" font-family="Times,serif" font-size="14.00">JwtStrategy</text>
</g>
<!-- JwtStrategy&#45;&gt;UserModule -->
<g id="edge8" class="edge">
<title>JwtStrategy&#45;&gt;UserModule</title>
<path fill="none" stroke="black" d="M384.67,-84.43C384.67,-84.43 384.67,-114.74 384.67,-114.74"/>
<polygon fill="black" stroke="black" points="381.17,-114.74 384.67,-124.74 388.17,-114.74 381.17,-114.74"/>
</g>
<!-- UserService -->
<g id="node10" class="node">
<title>UserService</title>
<ellipse fill="#fdb462" stroke="black" cx="266" cy="-66.8" rx="58.44" ry="18"/>
<text text-anchor="middle" x="266" y="-62.6" font-family="Times,serif" font-size="14.00">UserService</text>
</g>
<!-- UserService&#45;&gt;UserModule -->
<g id="edge9" class="edge">
<title>UserService&#45;&gt;UserModule</title>
<path fill="none" stroke="black" d="M324.3,-66.8C331.84,-66.8 337,-66.8 337,-66.8 337,-66.8 337,-142.8 337,-142.8 337,-142.8 345.94,-142.8 345.94,-142.8"/>
<polygon fill="black" stroke="black" points="345.94,-146.3 355.94,-142.8 345.94,-139.3 345.94,-146.3"/>
</g>
</g>
</svg>
